<svg width="36" height="36" viewBox="0 0 36 36" fill="none" xmlns="http://www.w3.org/2000/svg">
<path d="M33.1641 17.9896C34.305 17.9896 35.2295 18.8626 35.2295 19.9681V26.2064C35.2295 27.3119 34.305 28.2084 33.1641 28.2084H30.2119C29.071 28.2084 28.1465 28.9925 28.1465 30.098V33.0677C28.1464 34.1731 27.2346 35.0687 26.0938 35.0687H10.0166C8.87587 35.0686 7.95129 34.1731 7.95117 33.0677V29.3666C7.95117 28.2612 8.87579 27.3648 10.0166 27.3646H25.2148C26.3555 27.3644 27.2802 26.469 27.2803 25.3636V19.9916C27.2803 18.8861 28.2048 17.9896 29.3457 17.9896H33.1641ZM19.4863 14.099C20.6821 14.099 21.6523 15.0397 21.6523 16.1976V19.7523C21.6523 20.911 20.6814 21.851 19.4863 21.851H15.8174C14.6216 21.851 13.6514 20.9102 13.6514 19.7523V16.1976C13.6514 15.039 14.6224 14.099 15.8174 14.099H19.4863ZM25.2041 0.93103C26.345 0.93103 27.2694 1.8266 27.2695 2.93201V6.63318C27.2695 7.73867 26.345 8.63513 25.2041 8.63513H10.0166C8.87568 8.63513 7.95117 9.53159 7.95117 10.6371L7.95508 15.9877C7.95504 17.093 7.0304 17.9885 5.88965 17.9886H2.06934C0.928435 17.9886 2.93505e-05 17.1381 0 16.0326V9.7865C0.000177958 8.68116 0.92462 7.78552 2.06543 7.78552H5.00488C6.14571 7.78552 7.07017 6.88992 7.07031 5.78455V2.93201C7.07041 1.82663 7.99493 0.931089 9.13574 0.93103H25.2041Z" fill="#1A1A1A"/>
</svg>
